<svg xmlns="http://www.w3.org/2000/svg" xml:space="preserve" width="2000" height="79" stroke="#000" data-id="lg_HsaECjlk7fS8vDWfFO" data-version="1"><g data-padding="20"><g transform="translate(10 1.348)scale(.96587)"><path fill="#fcfcfc" d="M786.993 52.21v4.41q0 5.42-3.61 8.09-1.74 1.27-3.58 1.97-1.83.7-3.57.7h-14.57q-1.74 0-3.57-.7-1.84-.7-3.58-1.97-1.74-1.34-2.67-3.31-.94-1.97-.94-4.78V24.88q0-2.67.94-4.71.93-2.04 2.67-3.31h-.07q1.74-1.13 3.61-1.87 1.87-.73 3.61-.73h14.57q1.74 0 3.61.73 1.87.74 3.61 1.87h-.07q1.74 1.27 2.67 3.31.94 2.04.94 4.71v4.61q0 3.21-4.01 3.21-3.94 0-3.94-3.21v-4.01q0-1.67-1.01-3.07-1-1.4-3.47-1.4h-11.23q-2.47 0-3.47 1.4-1.01 1.4-1.01 3.07v30.61q0 1.74 1.01 3.14 1 1.4 3.47 1.4h11.23q2.47 0 3.47-1.4 1.01-1.4 1.01-3.14v-3.88q0-3.14 3.94-3.14 4.01 0 4.01 3.14m20.38-37.95h14.57q1.73 0 3.61.73 1.87.74 3.6 1.87h-.06q1.73 1.27 2.67 3.31t.94 4.71v31.74q0 5.42-3.61 8.09-1.74 1.27-3.58 1.97t-3.57.7h-14.57q-1.74 0-3.58-.7-1.83-.7-3.57-1.97-1.74-1.34-2.67-3.31-.94-1.97-.94-4.78V24.88q0-2.67.94-4.71.93-2.04 2.67-3.31h-.07q1.74-1.13 3.61-1.87 1.87-.73 3.61-.73m1.67 46.37h11.23q2.47 0 3.47-1.4t1-3.14V25.48q0-1.67-1-3.07t-3.47-1.4h-11.23q-2.47 0-3.48 1.4-1 1.4-1 3.07v30.61q0 1.74 1 3.14 1.01 1.4 3.48 1.4m48.24 0h9.08q2.48 0 3.48-1.4t1-3.14V25.48q0-1.67-1-3.07t-3.48-1.4h-15.63l-.07 43.56q0 1.47-1.13 2.34-1.14.87-2.81.87-3.94 0-3.94-3.21v-46.3q0-2.41 1.23-3.21 1.24-.8 2.98-.8h21.05q1.73 0 3.6.73 1.88.74 3.61 1.87h-.06q1.73 1.27 2.67 3.31.93 2.04.93 4.71v31.74q0 5.42-3.6 8.09-1.74 1.27-3.58 1.97t-3.57.7h-11.23q-1.14 0-1.77-.93-.64-.94-.64-2.48 0-3.34 2.88-3.34m60.34 6.75h-24.46q-2.47 0-3.34-1.27t-.87-2.8V18.27q0-1.54.87-2.78.87-1.23 3.34-1.23h23.26q2.47 0 2.6 3.34.14 3.41-2.6 3.41h-19.58v39.62h20.78q2.47 0 2.54 3.28.13 3.47-2.54 3.47m-3.68-27.66q0 2.33-1.63 3.94-1.64 1.6-3.98 1.6-2.27 0-3.88-1.6-1.6-1.61-1.6-3.94 0-2.34 1.6-3.95 1.61-1.6 3.88-1.6 2.34 0 3.98 1.6 1.63 1.61 1.63 3.95m49.45 12.49v4.41q0 5.42-3.6 8.09-1.74 1.27-3.58 1.97t-3.57.7h-14.57q-1.74 0-3.58-.7t-3.57-1.97q-1.74-1.34-2.68-3.31-.93-1.97-.93-4.78V24.88q0-2.67.93-4.71.94-2.04 2.68-3.31h-.07q1.74-1.13 3.61-1.87 1.87-.73 3.61-.73h14.57q1.73 0 3.6.73 1.88.74 3.61 1.87h-.06q1.73 1.27 2.67 3.31.93 2.04.93 4.71v4.61q0 3.21-4.01 3.21-3.94 0-3.94-3.21v-4.01q0-1.67-1-3.07t-3.48-1.4h-11.22q-2.47 0-3.48 1.4-1 1.4-1 3.07v30.61q0 1.74 1 3.14 1.01 1.4 3.48 1.4h11.22q2.48 0 3.48-1.4t1-3.14v-3.88q0-3.14 3.94-3.14 4.01 0 4.01 3.14m41.23 14.3-12.62-21.18h-5.15q-1.14 0-1.77-.9-.64-.9-.64-2.44 0-3.41 2.81-3.41h7.82q2.47 0 3.47-1.4 1.01-1.41 1.01-3.08v-8.62q0-1.67-1.01-3.07-1-1.4-3.47-1.4h-14.1v43.56q0 3.21-3.94 3.21-3.95 0-3.95-3.21v-46.3q0-2.41 1.24-3.21t2.97-.8h19.45q1.74 0 3.61.73 1.87.74 3.61 1.87h-.07q1.74 1.27 2.67 3.31.94 2.04.94 4.71v9.76q0 5.41-3.61 8.08-.74.54-1.57 1.01l-1.7.93 10.69 17.64q.2.34.4.87.2.54.2.87 0 1.6-2.27 3.07v-.06q-1.54.93-2.61.93-1.54 0-2.47-1.53Zm45.78-.8-14.7-44.91-14.64 44.91v-.07q-.4 1.01-1.1 1.64-.7.64-1.7.64-.54 0-1.04-.1t-1.03-.24h.06q-3.81-1.2-2.8-4.27l15.23-46.31q.34-1.07 1.17-1.81.84-.73 1.97-.87 1.14-.2 2.21-.3t1.67-.1 1.67.1 2.2.24q.94.13 1.84 1t1.37 1.74q3.74 11.49 7.59 23.15 3.84 11.66 7.58 23.16.94 3.07-2.81 4.27-.53.14-.96.24-.44.1-.97.1-.94 0-1.71-.64-.77-.63-1.1-1.64Zm-9.69-14.43q0 2.14-1.5 3.64-1.51 1.5-3.65 1.5-2.13 0-3.6-1.5t-1.47-3.64 1.47-3.65q1.47-1.5 3.6-1.5 2.14 0 3.65 1.5 1.5 1.51 1.5 3.65m59.27.93v4.41q0 5.42-3.61 8.09-1.73 1.27-3.57 1.97t-3.58.7h-14.56q-1.74 0-3.58-.7t-3.57-1.97q-1.74-1.34-2.68-3.31-.93-1.97-.93-4.78V24.88q0-2.67.93-4.71.94-2.04 2.68-3.31h-.07q1.74-1.13 3.61-1.87 1.87-.73 3.61-.73h14.56q1.74 0 3.61.73 1.87.74 3.61 1.87h-.07q1.74 1.27 2.68 3.31.93 2.04.93 4.71v4.61q0 3.21-4.01 3.21-3.94 0-3.94-3.21v-4.01q0-1.67-1-3.07t-3.48-1.4h-11.22q-2.47 0-3.48 1.4-1 1.4-1 3.07v30.61q0 1.74 1 3.14 1.01 1.4 3.48 1.4h11.22q2.48 0 3.48-1.4t1-3.14v-3.88q0-3.14 3.94-3.14 4.01 0 4.01 3.14m17.58-13.23 20.38-23.92q1-1.2 2.27-1.2 1.41 0 2.88 1.26.73.74 1.23 1.47.5.74.5 1.47 0 1.21-.87 2.08l-8.95 10.42-17.44 20.52v13.43q0 3.21-4.01 3.21-3.94 0-3.94-3.21V17.13q0-3.21 3.94-3.21 4.01 0 4.01 3.21Zm23.59 26.33-12.7-18.51q-.67-.94-.67-2.27 0-2.01 1.67-3.21h-.06q1.33-.94 2.67-.94 1.27 0 2.14 1.47l12.89 18.85-.06-.07q.6.94.6 2.01 0 1.73-1.74 3.07h.07q-.74.47-1.4.74-.67.26-1.21.26-.53 0-1.1-.4t-1.1-1m40.76 2.07h-24.46q-2.47 0-3.34-1.27t-.87-2.8V18.27q0-1.54.87-2.78.87-1.23 3.34-1.23h23.26q2.47 0 2.6 3.34.14 3.41-2.6 3.41h-19.58v39.62h20.78q2.47 0 2.54 3.28.13 3.47-2.54 3.47m-3.68-27.66q0 2.33-1.63 3.94-1.64 1.6-3.98 1.6-2.27 0-3.87-1.6-1.61-1.61-1.61-3.94 0-2.34 1.61-3.95 1.6-1.6 3.87-1.6 2.34 0 3.98 1.6 1.63 1.61 1.63 3.95m44.98 26.79-12.63-21.18h-5.15q-1.13 0-1.77-.9-.63-.9-.63-2.44 0-3.41 2.8-3.41h7.82q2.47 0 3.48-1.4 1-1.41 1-3.08v-8.62q0-1.67-1-3.07-1.01-1.4-3.48-1.4h-14.1v43.56q0 3.21-3.94 3.21t-3.94-3.21v-46.3q0-2.41 1.23-3.21 1.24-.8 2.98-.8h19.44q1.74 0 3.61.73 1.87.74 3.61 1.87h-.07q1.74 1.27 2.68 3.31.93 2.04.93 4.71v9.76q0 5.41-3.61 8.08-.73.54-1.57 1.01-.83.46-1.7.93l10.69 17.64q.2.34.4.87.2.54.2.87 0 1.6-2.27 3.07v-.06q-1.54.93-2.61.93-1.53 0-2.47-1.53Zm25.93-29.73h12.89q1.74 0 3.61.73 1.87.74 3.61 1.94h-.07q1.74 1.2 2.68 3.27.93 2.07.93 4.75v9.15q0 5.42-3.61 8.09-1.73 1.27-3.57 1.97t-3.58.7h-14.56q-1.74 0-3.58-.7t-3.58-1.97q-3.6-2.67-3.6-8.09v-4.41q0-3.14 3.94-3.14 4.01 0 4.01 3.14v3.88q0 1.74 1 3.14t3.48 1.4h11.22q2.47 0 3.48-1.4 1-1.4 1-3.14V48q0-1.67-1-3.1-1.01-1.44-3.48-1.44h-12.89q-3.48 0-7.16-2.54-3.6-2.81-3.6-8.09v-7.95q0-2.67.93-4.71.94-2.04 2.67-3.31h-.06q1.74-1.13 3.61-1.87 1.87-.73 3.61-.73h14.56q1.74 0 3.61.73 1.87.74 3.61 1.87h-.07q1.74 1.27 2.68 3.31.93 2.04.93 4.71v3.94q0 3.14-4.01 3.14-3.94 0-3.94-3.14v-3.34q0-1.67-1-3.07-1.01-1.4-3.48-1.4h-11.22q-2.48 0-3.48 1.4t-1 3.07v6.82q0 1.74 1 3.11t3.48 1.37"/><rect width="585.611" height="79.1" x="318.367" y="-402.37" fill="none" rx="0" ry="0" transform="translate(413.81 402.32)"/></g><path fill="transparent" stroke="transparent" d="M707 0h586v79H707z"/></g></svg>